<svg width="623" height="563" viewBox="0 0 623 563" fill="none" xmlns="http://www.w3.org/2000/svg">
<path fill-rule="evenodd" clip-rule="evenodd" d="M90.5222 462.893C91.4112 434.664 97.6742 407.868 109.627 382.39C129.579 339.864 156.175 302.118 190.796 270.226C212.463 250.267 236.609 234.163 264.116 223.179C295.337 210.712 325.452 213.385 354.81 228.86C371.936 237.888 386.81 249.896 399.388 264.522C421.262 289.959 442.063 316.246 459.97 344.696C473.226 365.756 484.708 387.675 491.973 411.602C497.222 428.891 500.15 446.504 498.519 464.621C495.34 499.906 479.173 527.82 448.293 545.219C422.667 559.658 394.629 562.939 366.022 554.226C354.437 550.698 343.217 545.977 331.798 541.89C319.437 537.467 306.833 534.066 293.66 533.111C285.563 532.523 277.638 533.177 270.02 536.124C254.849 541.989 239.76 548.073 224.53 553.78C211.576 558.634 198.228 562.171 184.314 562.537C156.596 563.266 131.956 555.847 113.213 534.143C102.278 521.482 96.3572 506.368 93.5882 490.074C92.0642 481.099 91.5122 471.959 90.5222 462.893Z" fill="#D91667"/>
<path fill-rule="evenodd" clip-rule="evenodd" d="M494.507 104.995C494.314 126.14 493.278 143.344 487.125 159.728C477.918 184.248 462.564 203.711 438.309 214.642C416.04 224.677 392.951 226.358 369.651 217.834C360.327 214.423 352.571 208.668 346.042 201.169C328.639 181.18 321.349 157.977 323.59 131.648C325.434 109.982 332.835 90.0847 342.736 70.9757C352.201 52.7047 364.792 37.0508 381.707 25.1328C392.513 17.5198 404.331 12.2477 417.686 11.3387C440.228 9.80275 458.387 18.4137 472.341 35.9227C483.125 49.4537 488.818 65.2937 491.726 82.1307C493.245 90.9347 493.906 99.8898 494.507 104.995Z" fill="#D91667"/>
<path fill-rule="evenodd" clip-rule="evenodd" d="M131.971 104.557C132.267 81.0648 136.685 58.6468 148.419 38.0408C155.533 25.5488 164.639 14.7968 177.452 7.88185C197.816 -3.10915 218.301 -2.34716 238.439 8.55784C253.271 16.5888 264.365 28.6739 273.573 42.5639C286.203 61.6169 294.751 82.4359 298.509 104.952C305.219 145.148 284.084 190.169 247.694 207.549C229.304 216.332 210.172 218.314 190.793 210.953C177.255 205.81 167.279 195.956 158.273 184.937C143.344 166.672 135.435 145.652 133.253 122.335C132.7 116.42 132.392 110.483 131.971 104.557Z" fill="#D91667"/>
<path fill-rule="evenodd" clip-rule="evenodd" d="M558.365 168.347C584.512 168.343 607.442 184.558 616.989 209.843C622.443 224.288 623.929 239.248 622.805 254.567C621.436 273.239 617.191 291.251 608.705 307.91C594.458 335.885 571.4 352.117 540.192 355.846C503.265 360.26 469.209 340.265 456.202 300.414C450.63 283.343 451.234 266.491 458.269 250.185C470.905 220.897 490.116 196.918 517.684 180.272C530.818 172.342 545.401 168.349 558.365 168.347Z" fill="#D91667"/>
<path fill-rule="evenodd" clip-rule="evenodd" d="M151.02 255.625C150.862 276.189 145.117 294.89 131.894 310.872C112.051 334.854 82.7113 341.307 53.7213 328.797C31.1983 319.078 17.3623 301.841 9.72925 279.171C2.17925 256.746 -1.34075 233.665 0.466254 209.989C1.57725 195.426 5.18225 181.462 12.7392 168.765C27.6102 143.78 54.9033 135.047 81.5433 146.731C94.9983 152.632 105.976 161.834 115.477 172.834C130.41 190.124 141.665 209.513 147.928 231.599C150.149 239.427 151.082 247.468 151.02 255.625Z" fill="#D91667"/>
</svg>
